<svg id="Layer_1" data-name="Layer 1" xmlns="http://www.w3.org/2000/svg" viewBox="0 0 4000 4000"><defs><style>.cls-1{fill:#40e6ff;}.cls-2{opacity:0.3;}.cls-3{fill:#000072;}.cls-4{fill:#dfe8ed;}.cls-5{fill:#263069;}.cls-6{fill:#4089ff;}.cls-7{opacity:0.55;}.cls-8{fill:#fff;}.cls-9{fill:#f2355d;}.cls-10{fill:#8ac457;}.cls-11{fill:#e9f0f4;}.cls-12{opacity:0.31;}</style></defs><circle class="cls-1" cx="2051.5" cy="1767.5" r="1674.5"/><g class="cls-2"><path class="cls-3" d="M3611.85,3278.62c0,130.17-248.65,245.83-633.27,318.61C2976.44,3736.57,2549,3849.4,2022,3849.4s-954.43-112.83-956.57-252.17c-384.62-72.78-633.27-188.44-633.27-318.61,0-220.34,711.78-398.91,1589.84-398.91S3611.85,3058.28,3611.85,3278.62Z"/></g><path class="cls-4" d="M1192.71,2941.13H692.34v-696a131.89,131.89,0,0,1,131.91-131.92h2420a131.89,131.89,0,0,1,131.92,131.92v696H2875.77"/><path class="cls-3" d="M3379.42,2944.4H2875.77v-6.55h497.09V2245.16a128.79,128.79,0,0,0-128.64-128.64h-2420a128.79,128.79,0,0,0-128.64,128.64v692.69h497.1v6.55H689.06V2245.16c0-74.55,60.65-135.2,135.19-135.2h2420c74.55,0,135.2,60.65,135.2,135.2Z"/><g class="cls-2"><path class="cls-5" d="M692.36,2699.07H1135a199.83,199.83,0,0,0-15.86,78.34v163.71H692.36Z"/><path class="cls-3" d="M1122.4,2944.4H689.08V2695.79h450.86l-1.94,4.56a195.93,195.93,0,0,0-15.6,77.06Zm-426.77-6.56h420.22V2777.41a202.43,202.43,0,0,1,14.25-75.06H695.63Z"/></g><g class="cls-2"><path class="cls-3" d="M3376.12,2699.07v242H2949.35V2777.41a199.66,199.66,0,0,0-15.87-78.34Z"/></g><polyline class="cls-6" points="2875.77 2941.13 3376.14 2941.13 3303.36 3214.06 2875.77 3214.06 2757.5 3214.06 1310.97 3214.06 1192.71 3214.06 765.12 3214.06 692.34 2941.13 1192.71 2941.13"/><g class="cls-2"><path class="cls-3" d="M3376.12,2941.12l-72.78,273H765.13l-72.77-273h38.1A321.11,321.11,0,0,0,1012,3107.77H3056.47A321.11,321.11,0,0,0,3338,2941.12Z"/></g><path class="cls-3" d="M3376.14,2969.75H2875.77a28.63,28.63,0,0,1,0-57.25h471.75V2245.16a103.42,103.42,0,0,0-103.3-103.3h-2420A103.41,103.41,0,0,0,721,2245.16V2912.5h471.75a28.63,28.63,0,0,1,0,57.25H692.33a28.63,28.63,0,0,1-28.62-28.62v-696c0-88.52,72-160.54,160.54-160.54h2420c88.52,0,160.54,72,160.54,160.54v696A28.63,28.63,0,0,1,3376.14,2969.75Z"/><path class="cls-3" d="M3303.36,3242.68H765.12a28.63,28.63,0,0,1-27.66-21.25L664.68,2948.5a28.63,28.63,0,0,1,27.65-36h500.38a28.63,28.63,0,0,1,0,57.25H729.59l57.52,215.68H3281.37l57.52-215.68H2875.77a28.63,28.63,0,0,1,0-57.25h500.37a28.63,28.63,0,0,1,27.65,36L3331,3221.43A28.61,28.61,0,0,1,3303.36,3242.68Z"/><path class="cls-6" d="M1289.88,2650H2778.6a97.17,97.17,0,0,1,97.17,97.17v466.88a0,0,0,0,1,0,0H1192.71a0,0,0,0,1,0,0V2747.17A97.17,97.17,0,0,1,1289.88,2650Z"/><g class="cls-7"><path class="cls-8" d="M2875.75,2777.33v49.06a127.31,127.31,0,0,0-127.32-127.32H1320a127.32,127.32,0,0,0-127.32,127.32v-49.06A127.31,127.31,0,0,1,1320,2650H2748.43A127.3,127.3,0,0,1,2875.75,2777.33Z"/></g><g class="cls-2"><rect class="cls-3" x="1192.72" y="2991.16" width="1683.03" height="222.91"/></g><path class="cls-3" d="M2875.77,3242.68H1192.71a28.63,28.63,0,0,1-28.63-28.62V2777.37c0-86,70-156,156-156H2748.4c86,0,156,70,156,156v436.69A28.62,28.62,0,0,1,2875.77,3242.68Zm-1654.44-57.25H2847.15V2777.37a98.85,98.85,0,0,0-98.75-98.74H1320.07a98.85,98.85,0,0,0-98.74,98.74Z"/><path class="cls-3" d="M2757.5,3242.68H1311a28.63,28.63,0,0,1-28.63-28.62V2777.37a37.77,37.77,0,0,1,37.72-37.72H2748.4a37.76,37.76,0,0,1,37.72,37.72v436.69A28.62,28.62,0,0,1,2757.5,3242.68Zm-1417.9-57.25H2728.88V2796.89H1339.6Z"/><path class="cls-8" d="M2750.93,3520.31H1326.62a59.13,59.13,0,0,1-59-63.63l35.46-465.52L1320,2768.25H2757.51l16.93,222.91,35.46,465.52A59.13,59.13,0,0,1,2750.93,3520.31Z"/><path class="cls-3" d="M2750.93,3549H1326.64a87.77,87.77,0,0,1-87.5-94.43l52.4-688.44a28.61,28.61,0,0,1,28.53-26.45H2757.5A28.62,28.62,0,0,1,2786,2766.1l52.39,688.44a87.77,87.77,0,0,1-87.5,94.43ZM1346.6,2796.89l-50.39,662a30.52,30.52,0,0,0,30.43,32.84H2750.93a30.52,30.52,0,0,0,30.43-32.83l-50.39-662Z"/><path class="cls-6" d="M1262.37,1719H2806.1a73.46,73.46,0,0,1,73.46,73.46v320.78a0,0,0,0,1,0,0H1188.91a0,0,0,0,1,0,0V1792.47A73.46,73.46,0,0,1,1262.37,1719Z"/><g class="cls-2"><rect class="cls-3" x="1188.88" y="1947.02" width="1690.72" height="166.24"/></g><g class="cls-7"><path class="cls-8" d="M2879.6,1815.28v59.37a96.39,96.39,0,0,0-96.33-96.33H1285.21a96.38,96.38,0,0,0-96.33,96.33v-59.37a96.32,96.32,0,0,1,96.33-96.25H2783.27A96.33,96.33,0,0,1,2879.6,1815.28Z"/></g><path class="cls-3" d="M2879.56,2141.86H1188.91a28.62,28.62,0,0,1-28.62-28.62V1815.3a125.05,125.05,0,0,1,124.91-124.91H2783.28a125,125,0,0,1,124.9,124.91v297.94A28.62,28.62,0,0,1,2879.56,2141.86Zm-1662-57.24h1633.4V1815.3a67.74,67.74,0,0,0-67.66-67.67H1285.2a67.74,67.74,0,0,0-67.66,67.67Z"/><circle class="cls-9" cx="2879.56" cy="2398.3" r="75.43"/><path class="cls-3" d="M2879.56,2477a78.71,78.71,0,1,1,78.71-78.71A78.8,78.8,0,0,1,2879.56,2477Zm0-150.87a72.16,72.16,0,1,0,72.16,72.16A72.24,72.24,0,0,0,2879.56,2326.14Z"/><circle class="cls-10" cx="3152.75" cy="2398.3" r="75.43"/><path class="cls-3" d="M3152.75,2477a78.71,78.71,0,1,1,78.71-78.71A78.8,78.8,0,0,1,3152.75,2477Zm0-150.87a72.16,72.16,0,1,0,72.15,72.16A72.24,72.24,0,0,0,3152.75,2326.14Z"/><g class="cls-2"><path class="cls-3" d="M3009.21,2443.29A75.49,75.49,0,0,1,2864,2472.07a75.43,75.43,0,0,0,85.29-102.62A75.37,75.37,0,0,1,3009.21,2443.29Z"/></g><g class="cls-2"><path class="cls-3" d="M3282.32,2443.29a75.48,75.48,0,0,1-145.22,28.78,75.44,75.44,0,0,0,85.37-102.62A75.37,75.37,0,0,1,3282.32,2443.29Z"/></g><g class="cls-7"><path class="cls-11" d="M2946.4,2363.32a74.51,74.51,0,0,0-31.07-6.71,75.52,75.52,0,0,0-66.81,110.48,75.46,75.46,0,1,1,97.88-103.77Z"/></g><g class="cls-7"><path class="cls-11" d="M3219.6,2363.32a74.51,74.51,0,0,0-31.07-6.71A75.45,75.45,0,0,0,3121.64,2467a75.44,75.44,0,1,1,98-103.68Z"/></g><path class="cls-3" d="M2879.56,2502.36a104.06,104.06,0,1,1,104.06-104.06A104.18,104.18,0,0,1,2879.56,2502.36Zm0-150.87a46.82,46.82,0,1,0,46.81,46.81A46.86,46.86,0,0,0,2879.56,2351.49Z"/><path class="cls-3" d="M3152.75,2502.36A104.06,104.06,0,1,1,3256.8,2398.3,104.18,104.18,0,0,1,3152.75,2502.36Zm0-150.87a46.82,46.82,0,1,0,46.81,46.81A46.87,46.87,0,0,0,3152.75,2351.49Z"/><path class="cls-8" d="M2757.5,1628.06v485.18H1320.07V1420.83a59.7,59.7,0,0,1,59.7-59.69H2467.92Z"/><g class="cls-2"><path class="cls-3" d="M2757.5,1737.43h-239a50.58,50.58,0,0,1-50.58-50.58V1470.51L2757.5,1623Z"/></g><path class="cls-3" d="M2757.5,2141.86H1320.07a28.62,28.62,0,0,1-28.62-28.62V1420.83a88.42,88.42,0,0,1,88.32-88.31H2467.92a28.62,28.62,0,0,1,19.4,7.58L2776.9,1607a28.61,28.61,0,0,1,9.22,21v485.18A28.62,28.62,0,0,1,2757.5,2141.86Zm-1408.8-57.24H2728.88v-444l-272.14-250.85h-1077a31.11,31.11,0,0,0-31.07,31.07Z"/><polygon class="cls-8" points="2757.5 1628.06 2467.92 1628.06 2467.92 1361.14 2757.5 1628.06"/><path class="cls-3" d="M2757.5,1656.69H2467.92a28.63,28.63,0,0,1-28.62-28.63V1361.14a28.62,28.62,0,0,1,48-21L2776.9,1607a28.62,28.62,0,0,1-19.4,49.67Zm-261-57.25h187.68l-187.68-173Z"/><path class="cls-3" d="M2757.49,1656.69a28.55,28.55,0,0,1-19.39-7.58l-289.58-266.93a28.62,28.62,0,1,1,38.8-42.08L2776.9,1607a28.63,28.63,0,0,1-19.41,49.67Z"/><g class="cls-2"><polygon class="cls-3" points="2774.44 2991.16 1303.11 2991.16 1320.04 2768.25 2757.51 2768.25 2774.44 2991.16"/></g><g class="cls-2"><rect class="cls-3" x="1339.17" y="1874.65" width="1418.32" height="238.59"/></g><g class="cls-12"><path class="cls-3" d="M1892.5,3363.42H1491.82a20.45,20.45,0,1,1,0-40.89H1892.5a20.45,20.45,0,0,1,0,40.89Z"/><path class="cls-3" d="M2015.16,3123.06H1502.72a20.45,20.45,0,0,1,0-40.89h512.44a20.45,20.45,0,0,1,0,40.89Z"/><path class="cls-3" d="M1790.28,3234.52H1502.72a20.45,20.45,0,0,1,0-40.89h287.56a20.45,20.45,0,1,1,0,40.89Z"/><path class="cls-3" d="M2588.93,3363.42H2301.36a20.45,20.45,0,0,1,0-40.89h287.57a20.45,20.45,0,0,1,0,40.89Z"/></g></svg>